<svg id="visual" viewBox="0 0 900 600" xmlns="http://www.w3.org/2000/svg" xmlns:xlink="http://www.w3.org/1999/xlink" version="1.1"><path d="M0 451L8.8 451.2C17.7 451.3 35.3 451.7 53 448.7C70.7 445.7 88.3 439.3 106 436.8C123.7 434.3 141.3 435.7 159 441C176.7 446.3 194.3 455.7 212 458.5C229.7 461.3 247.3 457.7 265 455.8C282.7 454 300.3 454 318 450.5C335.7 447 353.3 440 371 437.2C388.7 434.3 406.3 435.7 423.8 439.2C441.3 442.7 458.7 448.3 476.2 451.7C493.7 455 511.3 456 529 457.2C546.7 458.3 564.3 459.7 582 456.2C599.7 452.7 617.3 444.3 635 441.2C652.7 438 670.3 440 688 445C705.7 450 723.3 458 741 459.8C758.7 461.7 776.3 457.3 794 452.7C811.7 448 829.3 443 847 442C864.7 441 882.3 444 891.2 445.5L900 447L900 601L891.2 601C882.3 601 864.7 601 847 601C829.3 601 811.7 601 794 601C776.3 601 758.7 601 741 601C723.3 601 705.7 601 688 601C670.3 601 652.7 601 635 601C617.3 601 599.7 601 582 601C564.3 601 546.7 601 529 601C511.3 601 493.7 601 476.2 601C458.7 601 441.3 601 423.8 601C406.3 601 388.7 601 371 601C353.3 601 335.7 601 318 601C300.3 601 282.7 601 265 601C247.3 601 229.7 601 212 601C194.3 601 176.7 601 159 601C141.3 601 123.7 601 106 601C88.3 601 70.7 601 53 601C35.3 601 17.7 601 8.8 601L0 601Z" fill="#2d48be"></path><path d="M0 470L8.8 469.7C17.7 469.3 35.3 468.7 53 472.5C70.7 476.3 88.3 484.7 106 485C123.7 485.3 141.3 477.7 159 476C176.7 474.3 194.3 478.7 212 477.5C229.7 476.3 247.3 469.7 265 468C282.7 466.3 300.3 469.7 318 474.5C335.7 479.3 353.3 485.7 371 484.7C388.7 483.7 406.3 475.3 423.8 474.5C441.3 473.7 458.7 480.3 476.2 485.3C493.7 490.3 511.3 493.7 529 491.5C546.7 489.3 564.3 481.7 582 480C599.7 478.3 617.3 482.7 635 485C652.7 487.3 670.3 487.7 688 484.2C705.7 480.7 723.3 473.3 741 474.2C758.7 475 776.3 484 794 486C811.7 488 829.3 483 847 482.3C864.7 481.7 882.3 485.3 891.2 487.2L900 489L900 601L891.2 601C882.3 601 864.7 601 847 601C829.3 601 811.7 601 794 601C776.3 601 758.7 601 741 601C723.3 601 705.7 601 688 601C670.3 601 652.7 601 635 601C617.3 601 599.7 601 582 601C564.3 601 546.7 601 529 601C511.3 601 493.7 601 476.2 601C458.7 601 441.3 601 423.8 601C406.3 601 388.7 601 371 601C353.3 601 335.7 601 318 601C300.3 601 282.7 601 265 601C247.3 601 229.7 601 212 601C194.3 601 176.7 601 159 601C141.3 601 123.7 601 106 601C88.3 601 70.7 601 53 601C35.3 601 17.7 601 8.8 601L0 601Z" fill="#1a3b94"></path><path d="M0 525L8.8 519.8C17.7 514.7 35.3 504.3 53 499.7C70.7 495 88.3 496 106 497.5C123.7 499 141.3 501 159 500.8C176.7 500.7 194.3 498.3 212 497.7C229.7 497 247.3 498 265 499C282.7 500 300.3 501 318 503.3C335.7 505.7 353.3 509.3 371 508.3C388.7 507.3 406.3 501.7 423.8 500.2C441.3 498.7 458.7 501.3 476.2 504.2C493.7 507 511.3 510 529 511.7C546.7 513.3 564.3 513.7 582 510C599.7 506.3 617.3 498.7 635 497.7C652.7 496.7 670.3 502.3 688 507C705.7 511.7 723.3 515.3 741 517.2C758.7 519 776.3 519 794 519.3C811.7 519.7 829.3 520.3 847 521.5C864.7 522.7 882.3 524.3 891.2 525.2L900 526L900 601L891.2 601C882.3 601 864.7 601 847 601C829.3 601 811.7 601 794 601C776.3 601 758.7 601 741 601C723.3 601 705.7 601 688 601C670.3 601 652.7 601 635 601C617.3 601 599.7 601 582 601C564.3 601 546.7 601 529 601C511.3 601 493.7 601 476.2 601C458.7 601 441.3 601 423.8 601C406.3 601 388.7 601 371 601C353.3 601 335.7 601 318 601C300.3 601 282.7 601 265 601C247.3 601 229.7 601 212 601C194.3 601 176.7 601 159 601C141.3 601 123.7 601 106 601C88.3 601 70.7 601 53 601C35.3 601 17.7 601 8.8 601L0 601Z" fill="#112d6c"></path><path d="M0 531L8.8 531.7C17.7 532.3 35.3 533.7 53 536.7C70.7 539.7 88.3 544.3 106 543C123.7 541.7 141.3 534.3 159 531.5C176.7 528.7 194.3 530.3 212 531.8C229.7 533.3 247.3 534.7 265 537.8C282.7 541 300.3 546 318 547.5C335.7 549 353.3 547 371 543.8C388.7 540.7 406.3 536.3 423.8 538.2C441.3 540 458.7 548 476.2 550C493.7 552 511.3 548 529 542.5C546.7 537 564.3 530 582 530.5C599.7 531 617.3 539 635 538.8C652.7 538.7 670.3 530.3 688 530.5C705.7 530.7 723.3 539.3 741 542.7C758.7 546 776.3 544 794 542.8C811.7 541.7 829.3 541.3 847 542C864.7 542.7 882.3 544.3 891.2 545.2L900 546L900 601L891.2 601C882.3 601 864.7 601 847 601C829.3 601 811.7 601 794 601C776.3 601 758.7 601 741 601C723.3 601 705.7 601 688 601C670.3 601 652.7 601 635 601C617.3 601 599.7 601 582 601C564.3 601 546.7 601 529 601C511.3 601 493.7 601 476.2 601C458.7 601 441.3 601 423.8 601C406.3 601 388.7 601 371 601C353.3 601 335.7 601 318 601C300.3 601 282.7 601 265 601C247.3 601 229.7 601 212 601C194.3 601 176.7 601 159 601C141.3 601 123.7 601 106 601C88.3 601 70.7 601 53 601C35.3 601 17.7 601 8.8 601L0 601Z" fill="#0e1f45"></path><path d="M0 577L8.8 575C17.7 573 35.3 569 53 564.8C70.7 560.7 88.3 556.3 106 555.2C123.7 554 141.3 556 159 560.7C176.7 565.3 194.3 572.7 212 572.3C229.7 572 247.3 564 265 564.2C282.7 564.3 300.3 572.7 318 576C335.7 579.3 353.3 577.7 371 577.3C388.7 577 406.3 578 423.8 579.5C441.3 581 458.7 583 476.2 579.8C493.7 576.7 511.3 568.3 529 565.3C546.7 562.3 564.3 564.7 582 568.7C599.7 572.7 617.3 578.3 635 578.8C652.7 579.3 670.3 574.7 688 572.3C705.7 570 723.3 570 741 567.7C758.7 565.3 776.3 560.7 794 563.3C811.7 566 829.3 576 847 575.3C864.7 574.7 882.3 563.3 891.2 557.7L900 552L900 601L891.2 601C882.3 601 864.7 601 847 601C829.3 601 811.7 601 794 601C776.3 601 758.7 601 741 601C723.3 601 705.7 601 688 601C670.3 601 652.7 601 635 601C617.3 601 599.7 601 582 601C564.3 601 546.7 601 529 601C511.3 601 493.7 601 476.2 601C458.7 601 441.3 601 423.8 601C406.3 601 388.7 601 371 601C353.3 601 335.7 601 318 601C300.3 601 282.7 601 265 601C247.3 601 229.7 601 212 601C194.3 601 176.7 601 159 601C141.3 601 123.7 601 106 601C88.3 601 70.7 601 53 601C35.3 601 17.7 601 8.8 601L0 601Z" fill="#0b0f21"></path></svg>